HIERARCHY
ROOT Hips
{
	OFFSET 0.00000 0.00000 0.00000
	CHANNELS 6 Xposition Yposition Zposition Zrotation Yrotation Xrotation 
	JOINT LHipJoint
	{
		OFFSET 0 0 0
		CHANNELS 3 Zrotation Yrotation Xrotation
		JOINT LeftUpLeg
		{
			OFFSET 1.57314 -1.85774 0.63783
			CHANNELS 3 Zrotation Yrotation Xrotation
			JOINT LeftLeg
			{
				OFFSET 2.57982 -7.08799 0.00000
				CHANNELS 3 Zrotation Yrotation Xrotation
				JOINT LeftFoot
				{
					OFFSET 2.63993 -7.25315 0.00000
					CHANNELS 3 Zrotation Yrotation Xrotation
					JOINT LeftToeBase
					{
						OFFSET 0.16864 -0.46332 2.12791
						CHANNELS 3 Zrotation Yrotation Xrotation
						End Site
						{
							OFFSET 0.00000 -0.00000 1.09718
						}
					}
				}
			}
		}
	}
	JOINT RHipJoint
	{
		OFFSET 0 0 0
		CHANNELS 3 Zrotation Yrotation Xrotation
		JOINT RightUpLeg
		{
			OFFSET -1.56006 -1.85774 0.63784
			CHANNELS 3 Zrotation Yrotation Xrotation
			JOINT RightLeg
			{
				OFFSET -2.54246 -6.98536 0.00000
				CHANNELS 3 Zrotation Yrotation Xrotation
				JOINT RightFoot
				{
					OFFSET -2.65791 -7.30256 0.00000
					CHANNELS 3 Zrotation Yrotation Xrotation
					JOINT RightToeBase
					{
						OFFSET -0.18435 -0.50650 2.16316
						CHANNELS 3 Zrotation Yrotation Xrotation
						End Site
						{
							OFFSET -0.00000 -0.00000 1.11780
						}
					}
				}
			}
		}
	}
	JOINT LowerBack
	{
		OFFSET 0 0 0
		CHANNELS 3 Zrotation Yrotation Xrotation
		JOINT Spine
		{
			OFFSET -0.00136 1.92812 -0.29638
			CHANNELS 3 Zrotation Yrotation Xrotation
			JOINT Spine1
			{
				OFFSET -0.00528 1.96223 -0.02928
				CHANNELS 3 Zrotation Yrotation Xrotation
				JOINT Neck
				{
					OFFSET 0 0 0
					CHANNELS 3 Zrotation Yrotation Xrotation
					JOINT Neck1
					{
						OFFSET -0.01015 1.75586 0.07797
						CHANNELS 3 Zrotation Yrotation Xrotation
						JOINT Head
						{
							OFFSET 0.05540 1.72452 0.04558
							CHANNELS 3 Zrotation Yrotation Xrotation
							End Site
							{
								OFFSET 0.02170 1.79958 0.00864
							}
						}
					}
				}
				JOINT LeftShoulder
				{
					OFFSET 0 0 0
					CHANNELS 3 Zrotation Yrotation Xrotation
					JOINT LeftArm
					{
						OFFSET 3.16292 1.29277 -0.65728
						CHANNELS 3 Zrotation Yrotation Xrotation
						JOINT LeftForeArm
						{
							OFFSET 5.52302 -0.00000 -0.00000
							CHANNELS 3 Zrotation Yrotation Xrotation
							JOINT LeftHand
							{
								OFFSET 3.58675 -0.00000 -0.00000
								CHANNELS 3 Zrotation Yrotation Xrotation
								JOINT LeftFingerBase
								{
									OFFSET 0 0 0
									CHANNELS 3 Zrotation Yrotation Xrotation
									JOINT LeftHandIndex1
									{
										OFFSET 0.53641 -0.00000 -0.00000
										CHANNELS 3 Zrotation Yrotation Xrotation
										End Site
										{
											OFFSET 0.43247 -0.00000 -0.00000
										}
									}
								}
								JOINT LThumb
								{
									OFFSET 0 0 0
									CHANNELS 3 Zrotation Yrotation Xrotation
									End Site
									{
										OFFSET 0.43907 -0.00000 0.43907
									}
								}
							}
						}
					}
				}
				JOINT RightShoulder
				{
					OFFSET 0 0 0
					CHANNELS 3 Zrotation Yrotation Xrotation
					JOINT RightArm
					{
						OFFSET -3.08296 1.43376 -0.52927
						CHANNELS 3 Zrotation Yrotation Xrotation
						JOINT RightForeArm
						{
							OFFSET -5.84780 -0.00000 0.00000
							CHANNELS 3 Zrotation Yrotation Xrotation
							JOINT RightHand
							{
								OFFSET -3.62717 -0.00000 -0.00000
								CHANNELS 3 Zrotation Yrotation Xrotation
								JOINT RightFingerBase
								{
									OFFSET 0 0 0
									CHANNELS 3 Zrotation Yrotation Xrotation
									JOINT RightHandIndex1
									{
										OFFSET -0.65052 -0.00000 -0.00000
										CHANNELS 3 Zrotation Yrotation Xrotation
										End Site
										{
											OFFSET -0.52446 -0.00000 -0.00000
										}
									}
								}
								JOINT RThumb
								{
									OFFSET 0 0 0
									CHANNELS 3 Zrotation Yrotation Xrotation
									End Site
									{
										OFFSET -0.53247 -0.00000 0.53247
									}
								}
							}
						}
					}
				}
			}
		}
	}
}
MOTION
Frames: 9
Frame Time: .0083333
0.5820 18.3753 10.2474 -5.8996 -1.1039 9.8162 0.0000 0.0000 0.0000 -5.0681 -15.9967 -53.4422 17.8696 19.8908 83.7601 0.4595 2.3883 12.2050 0.5396 -4.7064 -13.0730 0.0000 0.0000 0.0000 31.0019 0.6994 15.5427 -0.5860 -4.9014 13.6277 -0.8925 -16.1475 18.9859 -0.0104 -0.6581 1.8085 6.7779 1.1783 12.0023 0.2396 2.5556 -0.6347 -4.0228 0.9941 -7.1452 -0.1665 -0.0755 -4.5111 0.1134 -0.0879 -5.2339 0.0610 -0.0403 -0.8537 0.0000 -0.0000 0.0000 -81.2947 35.6281 46.2870 123.7870 -55.2133 -88.7901 -0.0000 0.0000 -38.2712 39.3876 12.3288 9.9436 -7.1250 0.0000 -0.0000 11.4315 45.4549 0.1301 0.0000 -0.0000 0.0000 78.8553 18.4006 38.7859 -113.6380 57.7797 -80.3185 0.0000 -0.0000 -5.1117 -45.0579 26.3292 -23.9616 7.1250 -0.0000 -0.0000 -8.7385 4.6720 -9.5289
0.5785 18.4532 10.8218 -5.8017 -0.6251 9.9375 0.0000 0.0000 0.0000 -4.8598 -17.0922 -53.2100 16.2011 19.6504 78.8303 0.4222 1.1552 11.9250 0.4438 -4.2746 -11.8504 0.0000 0.0000 0.0000 30.7417 -0.1958 18.0715 -0.3632 -3.8713 10.7150 -1.4574 -18.8843 23.7077 -0.1355 -2.3729 6.5373 6.8059 1.1570 11.4095 0.0902 2.4784 -0.7356 -4.1633 0.9601 -6.9181 -0.3152 -0.2497 -4.4292 0.3609 -0.3077 -5.0562 0.1589 -0.1493 -0.8117 -0.0000 0.0000 0.0000 -81.5593 36.6117 45.8220 124.4973 -54.9873 -89.3727 -0.0000 0.0000 -39.5849 38.3434 11.2894 8.8021 -7.1250 0.0000 -0.0000 10.3509 44.0129 -0.2550 -0.0000 0.0000 0.0000 78.3644 18.1317 39.6286 -115.0238 57.4964 -81.4891 0.0000 -0.0000 -5.5732 -43.9770 26.7455 -23.4723 7.1250 -0.0000 -0.0000 -8.0265 4.7181 -8.7428
0.5735 18.5436 11.3960 -5.8655 -0.1779 9.9052 0.0000 0.0000 0.0000 -4.5301 -18.0838 -52.6255 14.4370 19.2412 73.5346 0.4127 0.1352 12.0896 0.3987 -4.0542 -11.2292 0.0000 0.0000 0.0000 30.6213 -1.1205 20.7900 -0.1922 -2.8230 7.7864 -2.1852 -20.6581 28.3596 -0.4460 -4.2850 11.8799 6.9858 1.1367 11.1103 -0.0529 2.4418 -0.7346 -4.3992 0.9407 -6.7385 -0.4331 -0.4112 -4.9996 0.7163 -0.5091 -4.4668 0.2814 -0.2486 -0.5378 0.0000 0.0000 0.0000 -81.7669 37.2815 45.4945 125.0537 -54.8055 -89.8279 -0.0000 0.0000 -40.1439 37.4993 10.4558 7.9274 -7.1250 0.0000 -0.0000 9.5061 42.8746 -0.5035 0.0000 0.0000 0.0000 77.9219 18.1618 40.4132 -116.0958 57.2636 -82.3920 0.0000 -0.0000 -5.6310 -44.3899 27.4005 -24.2520 7.1250 -0.0000 -0.0000 -8.0869 5.6586 -8.9305
0.5768 18.6200 11.9634 -6.2336 0.3323 9.9380 0.0000 0.0000 0.0000 -3.8505 -18.9661 -52.0678 12.6985 18.6706 68.1865 0.4017 -0.9680 12.3628 0.4047 -4.0842 -11.3136 0.0000 0.0000 0.0000 30.9089 -1.8211 22.8595 -0.1145 -2.1813 6.0071 -2.7306 -21.2807 31.2950 -0.9320 -6.1496 17.2192 7.6269 1.0871 10.8605 -0.1623 2.4379 -0.8502 -4.8693 0.9127 -6.6936 -0.5134 -0.4853 -5.2002 1.0850 -0.5982 -4.0554 0.4039 -0.2914 -0.3790 -0.0000 0.0000 0.0000 -81.8245 37.9842 45.3139 125.8403 -54.5414 -90.4697 -0.0000 0.0000 -40.2530 37.1646 9.2655 6.9589 -7.1250 0.0000 -0.0000 9.1250 41.3759 -0.8233 -0.0000 0.0000 0.0000 77.6148 17.9525 41.0966 -117.2688 56.9949 -83.3772 0.0000 -0.0000 -5.2755 -43.9058 27.0572 -23.6452 7.1250 -0.0000 -0.0000 -7.9067 5.0557 -8.6524
0.5797 18.6891 12.5272 -6.3893 0.6557 10.0636 0.0000 0.0000 0.0000 -3.5292 -19.5957 -51.3809 10.9418 17.9065 62.5923 0.3943 -2.1779 12.8590 0.5243 -4.6404 -12.8856 0.0000 0.0000 0.0000 31.2135 -2.0509 23.9458 -0.1219 -2.2512 6.2005 -2.9808 -20.5005 32.3224 -1.3342 -7.3140 20.6490 7.9347 1.0926 10.6149 -0.2546 2.4648 -1.0036 -5.1392 0.9085 -6.7000 -0.4733 -0.5479 -5.0351 1.1045 -0.6827 -4.1422 0.4031 -0.3349 -0.4312 0.0000 -0.0000 0.0000 -81.9905 38.5739 45.0832 126.6651 -54.2551 -91.1403 -0.0000 0.0000 -39.8941 36.8163 8.0017 5.9487 -7.1250 0.0000 -0.0000 8.7323 39.7916 -1.1310 0.0000 -0.0000 0.0000 77.2794 17.5941 41.7703 -118.6103 56.6690 -84.5001 0.0000 -0.0000 -4.8554 -42.4443 26.2802 -22.0442 7.1250 -0.0000 -0.0000 -7.2802 3.5668 -7.7805
0.5737 18.7509 13.0816 -6.2052 0.7336 9.8714 0.0000 0.0000 0.0000 -3.8084 -19.9049 -50.1400 9.2120 16.9422 56.8204 0.3884 -3.4916 13.5782 0.7446 -5.5122 -15.3755 0.0000 0.0000 0.0000 31.3826 -2.0171 24.4759 -0.2192 -3.0140 8.3177 -2.8551 -19.0347 31.3889 -1.3340 -7.3136 20.6479 7.5845 1.1608 10.7989 -0.2620 2.5244 -0.9763 -4.9656 0.9475 -6.7792 -0.7096 -0.6796 -5.0929 1.0614 -0.8464 -4.3573 0.4274 -0.4134 -0.4852 -0.0000 -0.0000 0.0000 -82.5325 38.7565 44.6994 127.2496 -54.0463 -91.6141 -0.0000 0.0000 -39.2990 36.0993 7.2009 5.2225 -7.1250 0.0000 -0.0000 8.0530 38.7487 -1.2496 -0.0000 -0.0000 0.0000 76.6622 17.4396 42.4199 -119.4075 56.4658 -85.1655 0.0000 -0.0000 -3.9712 -41.8564 26.2013 -21.5815 7.1250 -0.0000 -0.0000 -6.9658 3.2526 -7.4035
0.5631 18.7990 13.6238 -6.0863 0.7432 9.3298 0.0000 0.0000 0.0000 -4.1828 -20.0215 -48.3634 7.5935 15.8120 51.0850 0.4074 -3.4319 13.8096 0.6682 -5.2276 -14.5588 0.0000 0.0000 0.0000 31.7373 -1.9597 24.8625 -0.4033 -4.0770 11.2933 -2.5868 -17.7232 29.7516 -1.1444 -6.7931 19.1037 7.2716 1.2204 11.3445 -0.2832 2.5976 -0.7890 -4.8418 0.9940 -6.8887 -0.9805 -0.8172 -5.4786 1.1957 -1.0124 -4.1880 0.5088 -0.4915 -0.3682 -0.0000 0.0000 0.0000 -83.0372 38.7077 44.2537 127.8728 -53.8182 -92.1179 -0.0000 0.0000 -38.4817 35.5071 7.0294 4.9901 -7.1250 0.0000 -0.0000 7.5279 38.4913 -1.2149 -0.0000 0.0000 0.0000 76.2074 17.2348 43.1646 -119.8860 56.3402 -85.5640 0.0000 -0.0000 -2.7695 -42.4577 26.6202 -22.2924 7.1250 -0.0000 -0.0000 -7.2040 3.9699 -7.7453
0.5551 18.8303 14.1687 -6.6774 0.7339 8.7618 0.0000 0.0000 0.0000 -3.8975 -19.8290 -46.4086 6.1437 14.5662 45.5557 0.4104 -3.4190 13.8441 0.7954 -5.6928 -15.8956 0.0000 0.0000 0.0000 32.8569 -1.6876 24.9678 -0.6853 -5.2928 14.7455 -2.3061 -16.5708 28.0134 -0.8642 -5.9277 16.5747 7.5647 1.2235 11.8622 -0.0588 2.6923 -0.5796 -4.7999 1.0361 -6.9437 -1.0400 -0.8626 -5.9868 1.0684 -1.0688 -3.9646 0.4762 -0.5174 -0.2184 -0.0000 -0.0000 0.0000 -83.7049 38.4718 43.6895 128.4111 -53.6166 -92.5518 -0.0000 0.0000 -37.5234 35.3133 7.1287 5.0240 -7.1250 0.0000 -0.0000 7.3644 38.5955 -1.1692 -0.0000 -0.0000 0.0000 75.8100 16.7808 44.1261 -120.4921 56.1774 -86.0681 0.0000 -0.0000 -1.9315 -43.2568 27.2691 -23.3212 7.1250 -0.0000 -0.0000 -7.4899 5.0413 -8.1868
0.5412 18.8522 14.7270 -7.2946 0.5986 8.1642 0.0000 0.0000 0.0000 -3.6122 -19.5707 -44.1916 4.8906 13.2595 40.3478 0.4413 -2.6644 13.8075 0.9066 -6.0675 -16.9803 0.0000 0.0000 0.0000 33.9945 -1.3096 25.0793 -1.0507 -6.5180 18.2950 -2.1595 -16.1992 27.1168 -0.8437 -5.8589 16.3755 7.7171 1.2743 12.2992 0.2274 2.8299 -0.3655 -4.6166 1.1078 -6.9501 -1.0195 -0.9134 -6.3961 0.7366 -1.1387 -3.9224 0.3688 -0.5526 -0.1419 -0.0000 -0.0000 0.0000 -84.3276 38.0579 43.2498 128.7384 -53.4918 -92.8150 -0.0000 0.0000 -36.4112 35.6603 8.3669 5.9605 -7.1250 0.0000 -0.0000 7.7276 40.1235 -0.9354 -0.0000 -0.0000 0.0000 75.4388 16.1424 44.9391 -120.9313 56.0566 -86.4327 0.0000 -0.0000 -1.0349 -43.8715 28.1571 -24.4019 7.1250 -0.0000 -0.0000 -7.6010 6.3260 -8.4634
